# xmcd CD database file
#
# Track frame offsets:
#	150
#	5643
#	34663
#	70290
#	107420
#	171783
#	222313
#
# Disc length: 3676 seconds
#
# Revision: 0
# Processed by: cddbd v1.5.2PL0 Copyright (c) Steve Scherf et al.
# Submitted via: CDex 1.70beta2
#
DISCID=590e5a07
DTITLE=C.I.M - Plenitude Detente - Evasion Romantique
DYEAR=1999
DGENRE=New Age
TTITLE0=Introduction
TTITLE1=Valse
TTITLE2=Intermede
TTITLE3=Final
TTITLE4=1ier Mouvement
TTITLE5=2eme Mouvement
TTITLE6=3eme Mouvement
EXTD=YEAR: 1999
EXTT0=
EXTT1=
EXTT2=
EXTT3=
EXTT4=
EXTT5=
EXTT6=
PLAYORDER=
